<?xml version="1.0" encoding="UTF-8"?>
<svg id="Layer_1" data-name="Layer 1" xmlns="http://www.w3.org/2000/svg" viewBox="0 0 790.59 773.73">
  <defs>
    <style>
      .cls-1 {
        fill: #fff;
      }

      .cls-2 {
        fill: #329d6a;
      }
    </style>
  </defs>
  <path class="cls-1" d="M549.52,315.48c-7.13,2.81-13.44,7.15-20.09,10.85-18.94,10.53-37.78,21.24-56.57,32.05-2.4,1.38-3.91,1.42-6.15-.23-19.5-14.31-41.75-21.42-65.47-24.68-17.15-2.36-34.36-3.44-51.56-1.51-26.58,2.99-52.56,8.16-75.08,24.05-24.02,16.94-37.95,40.24-43.89,68.68-2.64,12.63-3.66,25.4-3.35,38.29,.24,10.03,2.06,19.82,4.75,29.43,.98,3.52,.63,6.43-.97,9.72-7.3,14.96-14.68,29.94-19.6,45.89-4.43,14.37-4.12,13.28,8.69,18.93,7.87,3.47,16,6.24,24.16,8.92,2.18,.72,3.16,1.85,3.81,4.11,4.89,16.94,10.21,33.74,20.53,48.37,5.05,7.17,11.18,13.13,20.09,15.2,6.46,1.5,12.82-.08,19.04-1.55,11.27-2.65,22.45-5.68,33.68-8.52,1.98-.5,3.99-1.09,6.01-1.2,14.28-.76,24.78,17.53,18.12,31.57-3.69,7.78-9.92,13.25-16.8,18.1-.89,.63-1.81,1.24-2.72,1.84-1.14,.75-2.43,1.39-2.02,3.15,.4,1.73,1.72,2.43,3.25,2.7,1.2,.21,2.45,.16,3.68,.16h126.55c1.09,0,2.22,.12,3.28-.08,4.29-.78,4.85-2,2.98-5.89-11.79-24.59-24.08-48.95-33.47-74.61-.14-.38-.2-.81-.39-1.16-5.34-9.82-.43-17.45,6.1-23.82,16.26-15.89,32.03-32.15,44.43-51.33,8.07-12.49,14.57-25.7,16.42-40.66,1.46-11.87,.58-23.78-.63-35.61-1.93-18.97-5.94-37.47-14.2-54.82-.83-1.75-.22-2.29,1.19-3.08,23.21-13.11,46.4-26.24,69.54-39.48,2.61-1.49,2.92,.38,3.74,1.83,15.91,28.3,31.81,56.6,47.73,84.89,35.34,62.83,70.69,125.66,106.05,188.48,5.2,9.23,10.42,18.45,15.91,28.16-1.75,.08-3.03,.2-4.3,.2-23.97,.01-47.94,.08-71.9-.07-3.24-.02-3.99,.84-3.97,4.01,.12,34.34,.02,68.68,.16,103.03,.01,3.29-.92,3.93-4.03,3.93-187.49-.08-374.99-.08-562.48,.01-3.5,0-4.54-.66-4.52-4.39,.17-34.07,.03-68.14,.2-102.21,.02-3.76-1.06-4.4-4.54-4.38-29.99,.14-59.98,.08-90.91,.08C124.47,441.74,248.68,221.14,373.19,0c59.25,105.18,118.24,209.91,177.23,314.64-.3,.28-.6,.56-.9,.84h0Z"/>
  <path class="cls-2" d="M549.52,315.48c.3-.28,.6-.56,.9-.84,7.69-2.93,13.22-8.62,18.32-14.71,7.48-8.93,13.55-18.84,19.52-28.81,1.24-2.07,.92-3.4-.62-4.98-2.76-2.83-5.36-5.72-7.59-9.09-8.84-13.33-6.51-25.83,2.11-38.08,5.95-8.46,13.4-15.48,21.43-21.89,1.8-1.44,2.77-2.53,1.65-5.02-1.66-3.7-.39-7.46,1.57-10.56,8.85-13.97,20.89-23.83,37.55-26.67,9.43-1.6,18.51,1.05,27.19,4.6,3.53,1.44,6.42,1.52,9.98-.24,17.13-8.46,32.56-4.27,46.96,6.84,4.78,3.69,8.8,7.77,9.35,14.17,.31,3.56,3.33,3.18,5.5,3.71,17.09,4.22,30.68,13.25,39.97,28.41,7.4,12.07,8.06,25.34,6.72,38.86-1.42,14.38-5.86,28.03-10.62,41.59-1.98,5.66-2.56,11.72-4.81,17.34-2.96,7.41-7.09,13.87-13.72,18.48-1.71,1.19-2.42,2.19-1.44,4.32,2.72,5.97,1.49,11.78-1.38,17.33-4.47,8.67-11.01,15.77-18.74,21.44-8.2,6.02-18.2,7.67-27.84,5.63-10.65-2.25-20.68-1.06-31.04,.94-8.24,1.59-16.76,1.43-24.65-1.96-10.76-4.63-16.64-13.07-17.1-24.81-.14-3.63-1.53-4.53-4.83-4.71-10.12-.55-20.21-1.18-30.34-.25-9.18,.85-17.67,3.56-25.29,8.77-2.29,1.56-3.48,1.37-5-1.17-7.78-12.95-15.8-25.77-23.73-38.64h.02Zm54.24-38.27c-2.1,.04-2.88,1.02-3.53,2.06-6.44,10.39-14.67,19.3-23.05,28.11-.79,.83-2.1,1.59-1.18,3.09,.87,1.41,1.89,.6,2.8,.08,8.04-4.61,16.07-9.25,24.1-13.88,.95-.55,2.23-1.09,1.71-2.4-2.18-5.55-1.65-11.23-.86-17.06h.01Zm14.96,55.44c.82-.1,2.04-.28,3.26-.37,3.5-.25,4.07-1.58,1.73-4.25-2.42-2.77-4.77-5.61-7.08-8.48-1.12-1.39-2.2-1.71-3.83-.73-4.56,2.74-9.21,5.32-13.8,8.01-.76,.44-2,.7-1.7,1.96,.23,1.01,1.31,.73,2.05,.92,6.22,1.65,12.57,2.41,19.37,2.93h0Z"/>
</svg>